<?xml version="1.0" standalone="no"?>
<!DOCTYPE svg PUBLIC "-//W3C//DTD SVG 20010904//EN"
 "http://www.w3.org/TR/2001/REC-SVG-20010904/DTD/svg10.dtd">
<svg version="1.0" xmlns="http://www.w3.org/2000/svg"
 width="260.000000pt" height="260.000000pt" viewBox="0 0 260.000000 260.000000"
 preserveAspectRatio="xMidYMid meet">
<metadata>
Created by potrace 1.14, written by Peter Selinger 2001-2017
</metadata>
<g transform="translate(0.000000,260.000000) scale(0.100000,-0.100000)"
fill="#000000" stroke="none">
<path d="M1214 2151 c-33 -8 -84 -38 -119 -69 -44 -38 -79 -118 -95 -217 -9
-54 -8 -70 5 -95 9 -17 19 -30 24 -30 4 0 6 -13 3 -30 -2 -16 0 -30 5 -30 11
0 39 89 35 115 -1 11 2 31 7 45 5 14 12 36 15 50 13 60 114 120 204 120 40 0
93 -19 120 -43 22 -20 57 -115 47 -126 -3 -2 -83 -5 -178 -5 -105 -1 -173 -5
-175 -11 -1 -5 12 -13 30 -16 l33 -6 -39 -2 c-38 -1 -39 -2 -20 -17 10 -8 14
-13 7 -10 -6 4 -15 2 -18 -4 -11 -17 47 -62 70 -55 11 4 28 9 38 12 10 3 17 0
18 -8 0 -8 5 2 12 21 16 47 39 45 49 -4 5 -21 17 -51 28 -66 30 -43 26 -50
-24 -44 -78 11 -128 -14 -71 -36 14 -5 25 -14 25 -19 0 -5 16 -9 36 -8 28 1
39 7 47 24 5 13 14 23 18 23 4 0 7 16 6 35 -1 20 -7 35 -14 35 -7 0 -17 9 -23
20 -13 24 -8 25 31 4 29 -14 33 -14 79 10 67 35 80 28 80 -46 0 -37 4 -57 10
-53 6 3 10 -1 10 -10 0 -13 -4 -14 -20 -5 -11 6 -20 16 -20 23 -1 7 -6 5 -14
-5 -7 -10 -16 -15 -19 -12 -3 3 -24 3 -45 -1 -28 -4 -42 -12 -45 -26 -3 -12
-14 -19 -29 -19 -19 0 -20 -2 -8 -11 12 -8 10 -9 -10 -5 -14 3 -53 6 -88 6
-40 0 -61 4 -57 10 3 6 -1 10 -10 10 -14 0 -12 8 11 48 27 47 27 47 2 25 -13
-13 -28 -23 -32 -23 -4 0 -21 -9 -36 -20 -25 -18 -27 -24 -20 -49 4 -15 4 -34
0 -41 -10 -16 67 -194 92 -211 5 -3 17 -21 26 -39 9 -18 26 -37 38 -41 25 -9
84 17 84 37 0 8 4 14 9 14 4 0 31 18 58 40 42 33 51 47 57 82 14 87 38 158 55
159 10 0 11 2 4 6 -7 2 -13 9 -13 15 0 6 7 8 15 4 16 -6 17 -4 20 37 2 26 7
39 42 114 20 41 19 68 -2 134 -20 60 -48 104 -82 132 -13 10 -23 27 -23 36 0
20 -52 91 -77 105 -12 6 -14 5 -8 -5 5 -8 0 -7 -11 3 -23 20 -114 31 -160 19z
m259 -358 c-7 -2 -19 -2 -25 0 -7 3 -2 5 12 5 14 0 19 -2 13 -5z m-286 -295
c-3 -8 -6 -5 -6 6 -1 11 2 17 5 13 3 -3 4 -12 1 -19z m112 6 c10 -9 -66 -3
-79 6 -10 7 -1 8 30 4 25 -4 47 -8 49 -10z"/>
<path d="M1481 1718 c-1 -9 -8 -24 -17 -32 -8 -9 -11 -16 -5 -16 14 0 34 38
27 53 -2 7 -5 5 -5 -5z"/>
<path d="M1220 1692 c0 -6 -8 -13 -17 -15 -16 -4 -16 -5 -1 -6 18 -1 34 16 24
26 -3 4 -6 1 -6 -5z"/>
<path d="M1020 1336 c-14 -17 -37 -41 -52 -55 -16 -14 -28 -31 -28 -37 0 -6
-18 -14 -40 -18 -22 -3 -64 -17 -94 -30 -74 -33 -101 -80 -131 -234 -13 -65
-40 -179 -59 -253 -36 -141 -61 -291 -52 -315 3 -8 -1 -60 -9 -117 -27 -191
-32 -242 -27 -259 4 -17 42 -18 633 -18 l630 0 -6 138 c-3 75 -7 175 -10 222
-6 110 10 84 19 -30 4 -62 12 -98 31 -133 20 -39 23 -53 14 -69 -8 -15 -7 -28
2 -51 8 -18 12 -42 11 -54 l-3 -23 181 0 181 0 -5 53 c-3 28 -8 94 -11 145 -6
127 -33 312 -55 386 -10 33 -21 79 -25 100 -10 62 -63 213 -106 303 -22 46
-39 88 -39 95 0 39 -136 129 -215 143 -30 5 -55 22 -100 64 -33 32 -71 63 -85
69 -35 17 -110 11 -110 -8 0 -9 -22 -37 -50 -63 -27 -26 -50 -51 -50 -56 0
-11 -64 -37 -111 -46 -46 -8 -110 17 -131 52 -15 25 -15 29 3 63 27 52 17 70
-34 67 -33 -1 -48 -9 -67 -31z m219 -251 c-27 -49 -49 -119 -65 -210 -10 -54
-13 -59 -29 -45 -8 7 -12 17 -9 22 15 24 30 130 29 206 l-1 82 53 0 53 0 -31
-55z"/>
</g>
</svg>
